# xmcd
#
# Track frame offsets:
#	150
#	16542
#	46286
#	64454
#	88865
#	113384
#	136725
#	168052
#	191315
#	204615
#	228009
#	245880
#
# Disc length: 3573 seconds
#
# Revision: 0
# Processed by: cddbd v1.5.1PL2 Copyright (c) Steve Scherf et al.
# Submitted via: audiograbber 1.83.01
#
DISCID=900df30c
DTITLE=Neal Schon - Piranha Blues
DYEAR=1999
DGENRE=Blues
TTITLE0=Whiskey, Women and Blues
TTITLE1=Gotta Get Back To You
TTITLE2=Lonesome Road
TTITLE3=Hole In My Pocket
TTITLE4=Walkin' Out The Door
TTITLE5=I'm In Love
TTITLE6=Love Trance
TTITLE7=Slow Down
TTITLE8=Play The Blues
TTITLE9=A Girl Like You
TTITLE10=Hey, Hey, Babe
TTITLE11=Blues For Miles
EXTD=
EXTT0=
EXTT1=
EXTT2=
EXTT3=
EXTT4=
EXTT5=
EXTT6=
EXTT7=
EXTT8=
EXTT9=
EXTT10=
EXTT11=
PLAYORDER=
